<mxfile host="app.diagrams.net" modified="2023-11-01T10:42:01.079Z" agent="Mozilla/5.0 (Windows NT 10.0; Win64; x64) AppleWebKit/537.36 (KHTML, like Gecko) Chrome/118.0.0.0 Safari/537.36" etag="fCoNKZi6LDbHXgMapShu" version="22.0.8" type="github">
  <diagram name="第 1 页" id="NIrhf4cWXuwJ-0UD27QU">
    <mxGraphModel dx="1420" dy="744" grid="1" gridSize="10" guides="1" tooltips="1" connect="1" arrows="1" fold="1" page="1" pageScale="1" pageWidth="827" pageHeight="1169" math="0" shadow="0">
      <root>
        <mxCell id="0" />
        <mxCell id="1" parent="0" />
        <mxCell id="wOmyIgqwsO0rQLLedRVF-15" value="" style="rounded=0;whiteSpace=wrap;html=1;" vertex="1" parent="1">
          <mxGeometry x="320" y="290" width="146" height="140" as="geometry" />
        </mxCell>
        <mxCell id="wOmyIgqwsO0rQLLedRVF-3" value="" style="rounded=0;whiteSpace=wrap;html=1;" vertex="1" parent="1">
          <mxGeometry x="90" y="170" width="110" height="420" as="geometry" />
        </mxCell>
        <mxCell id="wOmyIgqwsO0rQLLedRVF-4" value="&lt;font style=&quot;font-size: 15px;&quot;&gt;Topic1&lt;/font&gt;" style="text;html=1;strokeColor=none;fillColor=none;align=center;verticalAlign=middle;whiteSpace=wrap;rounded=0;fontStyle=1;fontSize=15;" vertex="1" parent="1">
          <mxGeometry x="115" y="130" width="60" height="30" as="geometry" />
        </mxCell>
        <mxCell id="wOmyIgqwsO0rQLLedRVF-56" style="edgeStyle=none;rounded=0;orthogonalLoop=1;jettySize=auto;html=1;exitX=1;exitY=0.5;exitDx=0;exitDy=0;entryX=0;entryY=0.5;entryDx=0;entryDy=0;" edge="1" parent="1" source="wOmyIgqwsO0rQLLedRVF-5" target="wOmyIgqwsO0rQLLedRVF-17">
          <mxGeometry relative="1" as="geometry" />
        </mxCell>
        <mxCell id="wOmyIgqwsO0rQLLedRVF-5" value="分区1" style="rounded=1;whiteSpace=wrap;html=1;fontStyle=1;fontSize=15;fillColor=#d5e8d4;strokeColor=#82b366;" vertex="1" parent="1">
          <mxGeometry x="105" y="180" width="80" height="30" as="geometry" />
        </mxCell>
        <mxCell id="wOmyIgqwsO0rQLLedRVF-57" style="edgeStyle=none;rounded=0;orthogonalLoop=1;jettySize=auto;html=1;exitX=1;exitY=0.5;exitDx=0;exitDy=0;entryX=0;entryY=0.5;entryDx=0;entryDy=0;" edge="1" parent="1" source="wOmyIgqwsO0rQLLedRVF-6" target="wOmyIgqwsO0rQLLedRVF-18">
          <mxGeometry relative="1" as="geometry" />
        </mxCell>
        <mxCell id="wOmyIgqwsO0rQLLedRVF-6" value="分区2" style="rounded=1;whiteSpace=wrap;html=1;fontStyle=1;fontSize=15;fillColor=#d5e8d4;strokeColor=#82b366;" vertex="1" parent="1">
          <mxGeometry x="105" y="220" width="80" height="30" as="geometry" />
        </mxCell>
        <mxCell id="wOmyIgqwsO0rQLLedRVF-58" style="edgeStyle=none;rounded=0;orthogonalLoop=1;jettySize=auto;html=1;exitX=1;exitY=0.5;exitDx=0;exitDy=0;entryX=0;entryY=0.5;entryDx=0;entryDy=0;" edge="1" parent="1" source="wOmyIgqwsO0rQLLedRVF-7" target="wOmyIgqwsO0rQLLedRVF-19">
          <mxGeometry relative="1" as="geometry" />
        </mxCell>
        <mxCell id="wOmyIgqwsO0rQLLedRVF-7" value="分区3" style="rounded=1;whiteSpace=wrap;html=1;fontStyle=1;fontSize=15;fillColor=#d5e8d4;strokeColor=#82b366;" vertex="1" parent="1">
          <mxGeometry x="105" y="260" width="80" height="30" as="geometry" />
        </mxCell>
        <mxCell id="wOmyIgqwsO0rQLLedRVF-59" style="edgeStyle=none;rounded=0;orthogonalLoop=1;jettySize=auto;html=1;exitX=1;exitY=0.5;exitDx=0;exitDy=0;" edge="1" parent="1" source="wOmyIgqwsO0rQLLedRVF-8" target="wOmyIgqwsO0rQLLedRVF-17">
          <mxGeometry relative="1" as="geometry" />
        </mxCell>
        <mxCell id="wOmyIgqwsO0rQLLedRVF-8" value="分区4" style="rounded=1;whiteSpace=wrap;html=1;fontStyle=1;fontSize=15;fillColor=#d5e8d4;strokeColor=#82b366;" vertex="1" parent="1">
          <mxGeometry x="105" y="300" width="80" height="30" as="geometry" />
        </mxCell>
        <mxCell id="wOmyIgqwsO0rQLLedRVF-60" style="edgeStyle=none;rounded=0;orthogonalLoop=1;jettySize=auto;html=1;exitX=1;exitY=0.5;exitDx=0;exitDy=0;entryX=0;entryY=0.5;entryDx=0;entryDy=0;" edge="1" parent="1" source="wOmyIgqwsO0rQLLedRVF-9" target="wOmyIgqwsO0rQLLedRVF-18">
          <mxGeometry relative="1" as="geometry" />
        </mxCell>
        <mxCell id="wOmyIgqwsO0rQLLedRVF-9" value="分区5" style="rounded=1;whiteSpace=wrap;html=1;fontStyle=1;fontSize=15;fillColor=#d5e8d4;strokeColor=#82b366;" vertex="1" parent="1">
          <mxGeometry x="105" y="340" width="80" height="30" as="geometry" />
        </mxCell>
        <mxCell id="wOmyIgqwsO0rQLLedRVF-61" style="edgeStyle=none;rounded=0;orthogonalLoop=1;jettySize=auto;html=1;exitX=1;exitY=0.5;exitDx=0;exitDy=0;entryX=0;entryY=0.5;entryDx=0;entryDy=0;" edge="1" parent="1" source="wOmyIgqwsO0rQLLedRVF-10" target="wOmyIgqwsO0rQLLedRVF-19">
          <mxGeometry relative="1" as="geometry" />
        </mxCell>
        <mxCell id="wOmyIgqwsO0rQLLedRVF-10" value="分区6" style="rounded=1;whiteSpace=wrap;html=1;fontStyle=1;fontSize=15;fillColor=#d5e8d4;strokeColor=#82b366;" vertex="1" parent="1">
          <mxGeometry x="105" y="380" width="80" height="30" as="geometry" />
        </mxCell>
        <mxCell id="wOmyIgqwsO0rQLLedRVF-62" style="edgeStyle=none;rounded=0;orthogonalLoop=1;jettySize=auto;html=1;exitX=1;exitY=0.5;exitDx=0;exitDy=0;" edge="1" parent="1" source="wOmyIgqwsO0rQLLedRVF-11">
          <mxGeometry relative="1" as="geometry">
            <mxPoint x="340" y="320" as="targetPoint" />
          </mxGeometry>
        </mxCell>
        <mxCell id="wOmyIgqwsO0rQLLedRVF-11" value="分区7" style="rounded=1;whiteSpace=wrap;html=1;fontStyle=1;fontSize=15;fillColor=#d5e8d4;strokeColor=#82b366;" vertex="1" parent="1">
          <mxGeometry x="105" y="420" width="80" height="30" as="geometry" />
        </mxCell>
        <mxCell id="wOmyIgqwsO0rQLLedRVF-63" style="edgeStyle=none;rounded=0;orthogonalLoop=1;jettySize=auto;html=1;exitX=1;exitY=0.5;exitDx=0;exitDy=0;entryX=0;entryY=0.5;entryDx=0;entryDy=0;" edge="1" parent="1" source="wOmyIgqwsO0rQLLedRVF-12" target="wOmyIgqwsO0rQLLedRVF-18">
          <mxGeometry relative="1" as="geometry" />
        </mxCell>
        <mxCell id="wOmyIgqwsO0rQLLedRVF-12" value="分区8" style="rounded=1;whiteSpace=wrap;html=1;fontStyle=1;fontSize=15;fillColor=#d5e8d4;strokeColor=#82b366;" vertex="1" parent="1">
          <mxGeometry x="105" y="460" width="80" height="30" as="geometry" />
        </mxCell>
        <mxCell id="wOmyIgqwsO0rQLLedRVF-64" style="edgeStyle=none;rounded=0;orthogonalLoop=1;jettySize=auto;html=1;exitX=1;exitY=0.5;exitDx=0;exitDy=0;entryX=0;entryY=0.5;entryDx=0;entryDy=0;" edge="1" parent="1" source="wOmyIgqwsO0rQLLedRVF-13" target="wOmyIgqwsO0rQLLedRVF-19">
          <mxGeometry relative="1" as="geometry" />
        </mxCell>
        <mxCell id="wOmyIgqwsO0rQLLedRVF-13" value="分区9" style="rounded=1;whiteSpace=wrap;html=1;fontStyle=1;fontSize=15;fillColor=#d5e8d4;strokeColor=#82b366;" vertex="1" parent="1">
          <mxGeometry x="105" y="500" width="80" height="30" as="geometry" />
        </mxCell>
        <mxCell id="wOmyIgqwsO0rQLLedRVF-65" style="edgeStyle=none;rounded=0;orthogonalLoop=1;jettySize=auto;html=1;exitX=1;exitY=0.5;exitDx=0;exitDy=0;entryX=0;entryY=0.5;entryDx=0;entryDy=0;" edge="1" parent="1" source="wOmyIgqwsO0rQLLedRVF-14" target="wOmyIgqwsO0rQLLedRVF-17">
          <mxGeometry relative="1" as="geometry" />
        </mxCell>
        <mxCell id="wOmyIgqwsO0rQLLedRVF-14" value="分区10" style="rounded=1;whiteSpace=wrap;html=1;fontStyle=1;fontSize=15;fillColor=#d5e8d4;strokeColor=#82b366;" vertex="1" parent="1">
          <mxGeometry x="105" y="540" width="80" height="30" as="geometry" />
        </mxCell>
        <mxCell id="wOmyIgqwsO0rQLLedRVF-16" value="&lt;font style=&quot;font-size: 15px;&quot;&gt;Consumer Group&lt;/font&gt;" style="text;html=1;strokeColor=none;fillColor=none;align=center;verticalAlign=middle;whiteSpace=wrap;rounded=0;fontStyle=1;fontSize=15;" vertex="1" parent="1">
          <mxGeometry x="360" y="250" width="60" height="30" as="geometry" />
        </mxCell>
        <mxCell id="wOmyIgqwsO0rQLLedRVF-17" value="消费者1" style="rounded=1;whiteSpace=wrap;html=1;fontStyle=1;fontSize=15;fillColor=#f8cecc;strokeColor=#b85450;" vertex="1" parent="1">
          <mxGeometry x="340" y="310" width="110" height="30" as="geometry" />
        </mxCell>
        <mxCell id="wOmyIgqwsO0rQLLedRVF-18" value="消费者2" style="rounded=1;whiteSpace=wrap;html=1;fontStyle=1;fontSize=15;fillColor=#f8cecc;strokeColor=#b85450;" vertex="1" parent="1">
          <mxGeometry x="340" y="350" width="110" height="30" as="geometry" />
        </mxCell>
        <mxCell id="wOmyIgqwsO0rQLLedRVF-19" value="消费者3" style="rounded=1;whiteSpace=wrap;html=1;fontStyle=1;fontSize=15;fillColor=#f8cecc;strokeColor=#b85450;" vertex="1" parent="1">
          <mxGeometry x="340" y="390" width="110" height="30" as="geometry" />
        </mxCell>
        <mxCell id="wOmyIgqwsO0rQLLedRVF-31" value="" style="rounded=0;whiteSpace=wrap;html=1;" vertex="1" parent="1">
          <mxGeometry x="580" y="170" width="110" height="450" as="geometry" />
        </mxCell>
        <mxCell id="wOmyIgqwsO0rQLLedRVF-32" value="&lt;font style=&quot;font-size: 15px;&quot;&gt;Topic2&lt;/font&gt;" style="text;html=1;strokeColor=none;fillColor=none;align=center;verticalAlign=middle;whiteSpace=wrap;rounded=0;fontStyle=1;fontSize=15;" vertex="1" parent="1">
          <mxGeometry x="605" y="130" width="60" height="30" as="geometry" />
        </mxCell>
        <mxCell id="wOmyIgqwsO0rQLLedRVF-44" style="edgeStyle=none;rounded=0;orthogonalLoop=1;jettySize=auto;html=1;exitX=0;exitY=0.5;exitDx=0;exitDy=0;entryX=1;entryY=0.5;entryDx=0;entryDy=0;" edge="1" parent="1" source="wOmyIgqwsO0rQLLedRVF-33" target="wOmyIgqwsO0rQLLedRVF-18">
          <mxGeometry relative="1" as="geometry" />
        </mxCell>
        <mxCell id="wOmyIgqwsO0rQLLedRVF-33" value="分区1" style="rounded=1;whiteSpace=wrap;html=1;fontStyle=1;fontSize=15;fillColor=#d5e8d4;strokeColor=#82b366;" vertex="1" parent="1">
          <mxGeometry x="595" y="180" width="80" height="30" as="geometry" />
        </mxCell>
        <mxCell id="wOmyIgqwsO0rQLLedRVF-66" style="edgeStyle=none;rounded=0;orthogonalLoop=1;jettySize=auto;html=1;exitX=0;exitY=0.5;exitDx=0;exitDy=0;entryX=1;entryY=0.5;entryDx=0;entryDy=0;" edge="1" parent="1" source="wOmyIgqwsO0rQLLedRVF-34" target="wOmyIgqwsO0rQLLedRVF-19">
          <mxGeometry relative="1" as="geometry" />
        </mxCell>
        <mxCell id="wOmyIgqwsO0rQLLedRVF-34" value="分区2" style="rounded=1;whiteSpace=wrap;html=1;fontStyle=1;fontSize=15;fillColor=#d5e8d4;strokeColor=#82b366;" vertex="1" parent="1">
          <mxGeometry x="595" y="220" width="80" height="30" as="geometry" />
        </mxCell>
        <mxCell id="wOmyIgqwsO0rQLLedRVF-67" style="edgeStyle=none;rounded=0;orthogonalLoop=1;jettySize=auto;html=1;exitX=0;exitY=0.5;exitDx=0;exitDy=0;entryX=1;entryY=0.5;entryDx=0;entryDy=0;" edge="1" parent="1" source="wOmyIgqwsO0rQLLedRVF-35" target="wOmyIgqwsO0rQLLedRVF-17">
          <mxGeometry relative="1" as="geometry" />
        </mxCell>
        <mxCell id="wOmyIgqwsO0rQLLedRVF-35" value="分区3" style="rounded=1;whiteSpace=wrap;html=1;fontStyle=1;fontSize=15;fillColor=#d5e8d4;strokeColor=#82b366;" vertex="1" parent="1">
          <mxGeometry x="595" y="260" width="80" height="30" as="geometry" />
        </mxCell>
        <mxCell id="wOmyIgqwsO0rQLLedRVF-47" style="edgeStyle=none;rounded=0;orthogonalLoop=1;jettySize=auto;html=1;exitX=0;exitY=0.5;exitDx=0;exitDy=0;entryX=1;entryY=0.5;entryDx=0;entryDy=0;" edge="1" parent="1" source="wOmyIgqwsO0rQLLedRVF-36" target="wOmyIgqwsO0rQLLedRVF-18">
          <mxGeometry relative="1" as="geometry" />
        </mxCell>
        <mxCell id="wOmyIgqwsO0rQLLedRVF-36" value="分区4" style="rounded=1;whiteSpace=wrap;html=1;fontStyle=1;fontSize=15;fillColor=#d5e8d4;strokeColor=#82b366;" vertex="1" parent="1">
          <mxGeometry x="595" y="300" width="80" height="30" as="geometry" />
        </mxCell>
        <mxCell id="wOmyIgqwsO0rQLLedRVF-48" style="edgeStyle=none;rounded=0;orthogonalLoop=1;jettySize=auto;html=1;exitX=0;exitY=0.5;exitDx=0;exitDy=0;entryX=1;entryY=0.5;entryDx=0;entryDy=0;" edge="1" parent="1" source="wOmyIgqwsO0rQLLedRVF-37" target="wOmyIgqwsO0rQLLedRVF-19">
          <mxGeometry relative="1" as="geometry" />
        </mxCell>
        <mxCell id="wOmyIgqwsO0rQLLedRVF-37" value="分区5" style="rounded=1;whiteSpace=wrap;html=1;fontStyle=1;fontSize=15;fillColor=#d5e8d4;strokeColor=#82b366;" vertex="1" parent="1">
          <mxGeometry x="595" y="340" width="80" height="30" as="geometry" />
        </mxCell>
        <mxCell id="wOmyIgqwsO0rQLLedRVF-68" style="edgeStyle=none;rounded=0;orthogonalLoop=1;jettySize=auto;html=1;exitX=0;exitY=0.5;exitDx=0;exitDy=0;entryX=1;entryY=0.5;entryDx=0;entryDy=0;" edge="1" parent="1" source="wOmyIgqwsO0rQLLedRVF-38" target="wOmyIgqwsO0rQLLedRVF-17">
          <mxGeometry relative="1" as="geometry" />
        </mxCell>
        <mxCell id="wOmyIgqwsO0rQLLedRVF-38" value="分区6" style="rounded=1;whiteSpace=wrap;html=1;fontStyle=1;fontSize=15;fillColor=#d5e8d4;strokeColor=#82b366;" vertex="1" parent="1">
          <mxGeometry x="595" y="380" width="80" height="30" as="geometry" />
        </mxCell>
        <mxCell id="wOmyIgqwsO0rQLLedRVF-69" style="edgeStyle=none;rounded=0;orthogonalLoop=1;jettySize=auto;html=1;exitX=0;exitY=0.5;exitDx=0;exitDy=0;entryX=1;entryY=0.5;entryDx=0;entryDy=0;" edge="1" parent="1" source="wOmyIgqwsO0rQLLedRVF-39" target="wOmyIgqwsO0rQLLedRVF-18">
          <mxGeometry relative="1" as="geometry" />
        </mxCell>
        <mxCell id="wOmyIgqwsO0rQLLedRVF-39" value="分区7" style="rounded=1;whiteSpace=wrap;html=1;fontStyle=1;fontSize=15;fillColor=#d5e8d4;strokeColor=#82b366;" vertex="1" parent="1">
          <mxGeometry x="595" y="420" width="80" height="30" as="geometry" />
        </mxCell>
        <mxCell id="wOmyIgqwsO0rQLLedRVF-51" style="edgeStyle=none;rounded=0;orthogonalLoop=1;jettySize=auto;html=1;exitX=0;exitY=0.5;exitDx=0;exitDy=0;entryX=1;entryY=0.5;entryDx=0;entryDy=0;" edge="1" parent="1" source="wOmyIgqwsO0rQLLedRVF-40" target="wOmyIgqwsO0rQLLedRVF-19">
          <mxGeometry relative="1" as="geometry" />
        </mxCell>
        <mxCell id="wOmyIgqwsO0rQLLedRVF-40" value="分区8" style="rounded=1;whiteSpace=wrap;html=1;fontStyle=1;fontSize=15;fillColor=#d5e8d4;strokeColor=#82b366;" vertex="1" parent="1">
          <mxGeometry x="595" y="460" width="80" height="30" as="geometry" />
        </mxCell>
        <mxCell id="wOmyIgqwsO0rQLLedRVF-70" style="edgeStyle=none;rounded=0;orthogonalLoop=1;jettySize=auto;html=1;exitX=0;exitY=0.5;exitDx=0;exitDy=0;entryX=1;entryY=0.5;entryDx=0;entryDy=0;" edge="1" parent="1" source="wOmyIgqwsO0rQLLedRVF-41" target="wOmyIgqwsO0rQLLedRVF-17">
          <mxGeometry relative="1" as="geometry" />
        </mxCell>
        <mxCell id="wOmyIgqwsO0rQLLedRVF-41" value="分区9" style="rounded=1;whiteSpace=wrap;html=1;fontStyle=1;fontSize=15;fillColor=#d5e8d4;strokeColor=#82b366;" vertex="1" parent="1">
          <mxGeometry x="595" y="500" width="80" height="30" as="geometry" />
        </mxCell>
        <mxCell id="wOmyIgqwsO0rQLLedRVF-71" style="edgeStyle=none;rounded=0;orthogonalLoop=1;jettySize=auto;html=1;exitX=0;exitY=0.5;exitDx=0;exitDy=0;entryX=1;entryY=0.5;entryDx=0;entryDy=0;" edge="1" parent="1" source="wOmyIgqwsO0rQLLedRVF-42" target="wOmyIgqwsO0rQLLedRVF-18">
          <mxGeometry relative="1" as="geometry" />
        </mxCell>
        <mxCell id="wOmyIgqwsO0rQLLedRVF-42" value="分区10" style="rounded=1;whiteSpace=wrap;html=1;fontStyle=1;fontSize=15;fillColor=#d5e8d4;strokeColor=#82b366;" vertex="1" parent="1">
          <mxGeometry x="595" y="540" width="80" height="30" as="geometry" />
        </mxCell>
        <mxCell id="wOmyIgqwsO0rQLLedRVF-54" style="edgeStyle=none;rounded=0;orthogonalLoop=1;jettySize=auto;html=1;exitX=0;exitY=0.5;exitDx=0;exitDy=0;entryX=1;entryY=0.5;entryDx=0;entryDy=0;" edge="1" parent="1" source="wOmyIgqwsO0rQLLedRVF-43" target="wOmyIgqwsO0rQLLedRVF-19">
          <mxGeometry relative="1" as="geometry" />
        </mxCell>
        <mxCell id="wOmyIgqwsO0rQLLedRVF-43" value="分区11" style="rounded=1;whiteSpace=wrap;html=1;fontStyle=1;fontSize=15;fillColor=#d5e8d4;strokeColor=#82b366;" vertex="1" parent="1">
          <mxGeometry x="595" y="584.5" width="80" height="30" as="geometry" />
        </mxCell>
        <mxCell id="wOmyIgqwsO0rQLLedRVF-84" style="edgeStyle=none;rounded=0;orthogonalLoop=1;jettySize=auto;html=1;exitX=0.5;exitY=0;exitDx=0;exitDy=0;" edge="1" parent="1" source="wOmyIgqwsO0rQLLedRVF-72" target="wOmyIgqwsO0rQLLedRVF-19">
          <mxGeometry relative="1" as="geometry" />
        </mxCell>
        <mxCell id="wOmyIgqwsO0rQLLedRVF-72" value="" style="rounded=0;whiteSpace=wrap;html=1;" vertex="1" parent="1">
          <mxGeometry x="340" y="560" width="110" height="170" as="geometry" />
        </mxCell>
        <mxCell id="wOmyIgqwsO0rQLLedRVF-73" value="&lt;font style=&quot;font-size: 15px;&quot;&gt;Topic3&lt;/font&gt;" style="text;html=1;strokeColor=none;fillColor=none;align=center;verticalAlign=middle;whiteSpace=wrap;rounded=0;fontStyle=1;fontSize=15;" vertex="1" parent="1">
          <mxGeometry x="260" y="610" width="60" height="30" as="geometry" />
        </mxCell>
        <mxCell id="wOmyIgqwsO0rQLLedRVF-74" value="分区1" style="rounded=1;whiteSpace=wrap;html=1;fontStyle=1;fontSize=15;fillColor=#d5e8d4;strokeColor=#82b366;" vertex="1" parent="1">
          <mxGeometry x="355" y="570" width="80" height="30" as="geometry" />
        </mxCell>
        <mxCell id="wOmyIgqwsO0rQLLedRVF-75" value="分区2" style="rounded=1;whiteSpace=wrap;html=1;fontStyle=1;fontSize=15;fillColor=#d5e8d4;strokeColor=#82b366;" vertex="1" parent="1">
          <mxGeometry x="355" y="610" width="80" height="30" as="geometry" />
        </mxCell>
        <mxCell id="wOmyIgqwsO0rQLLedRVF-76" value="分区3" style="rounded=1;whiteSpace=wrap;html=1;fontStyle=1;fontSize=15;fillColor=#d5e8d4;strokeColor=#82b366;" vertex="1" parent="1">
          <mxGeometry x="355" y="650" width="80" height="30" as="geometry" />
        </mxCell>
        <mxCell id="wOmyIgqwsO0rQLLedRVF-77" value="分区4" style="rounded=1;whiteSpace=wrap;html=1;fontStyle=1;fontSize=15;fillColor=#d5e8d4;strokeColor=#82b366;" vertex="1" parent="1">
          <mxGeometry x="355" y="690" width="80" height="30" as="geometry" />
        </mxCell>
      </root>
    </mxGraphModel>
  </diagram>
</mxfile>
